<svg id="flu-header" xmlns="http://www.w3.org/2000/svg" viewBox="444 279 319 316" width="32" height="32"
    preserveAspectRatio="xMidYMid meet">

    <path fill="rgb(255,188,11)"
        d="M444.704 279.688C550.346 281.096 657.574 279.345 763.434 279.904C761.625 306.109 762.673 345.791 763.048 372.796C726.89 371.033 688.869 372.999 652.388 371.81C647.296 387.166 645.045 406.393 641.541 422.646C639.112 433.908 639.056 451.944 633.995 462.342C633.316 463.738 633.76 464.338 634.066 466.145L635.277 466.807L634.79 468.138C629.69 469.612 606.538 469.033 600.191 469.014L538.054 468.945C538.035 510.942 538.315 552.938 538.896 594.931C507.518 594.744 476.14 594.866 444.765 595.296C443.842 550.611 444.408 504.232 444.383 459.366C444.166 399.473 444.273 339.579 444.704 279.688z" />

</svg>